<?xml version="1.0" ?><svg viewBox="0 0 32 32" xmlns="http://www.w3.org/2000/svg"><defs><style>.cls-1{fill:#0593ff;}.cls-2{fill:#d8e1ef;}.cls-3{fill:#0e6ae0;}</style></defs><title/><g data-name="TV Shield" id="TV_Shield"><path class="cls-1" d="M20,21.84A1,1,0,0,0,19,21H13a1,1,0,0,0-1,.84l-1,6a1,1,0,0,0,.23.81A1,1,0,0,0,12,29h8a1,1,0,0,0,.76-.35,1,1,0,0,0,.23-.81Z"/><rect class="cls-2" height="20" rx="3" ry="3" width="26" x="3" y="3"/><path class="cls-3" d="M22,29H10a1,1,0,0,1,0-2H22a1,1,0,0,1,0,2Z"/><path class="cls-1" d="M21,9c-3.24,0-4.08-1.41-4.11-1.45A1,1,0,0,0,16,7a1,1,0,0,0-.9.52s-.66,1.1-2.92,1.4A9.12,9.12,0,0,1,11,9a1,1,0,0,0-1,1v1.94a7,7,0,0,0,4.4,6.5l1.23.49a1,1,0,0,0,.74,0l1.23-.49a7,7,0,0,0,4.4-6.5V10A1,1,0,0,0,21,9Z"/></g></svg>